<svg width="21" height="20" viewBox="0 0 21 20" fill="none" xmlns="http://www.w3.org/2000/svg">
    <path
        d="M16.1221 0H5.51538C2.931 0 0.835938 2.09867 0.835938 4.6875V15.3125C0.835938 17.9013 2.931 20 5.51538 20H16.1221C18.7065 20 20.8016 17.9013 20.8016 15.3125V4.6875C20.8016 2.09867 18.7065 0 16.1221 0Z"
        fill="url(#paint0_radial_1589_549)" />
    <path
        d="M16.1221 0H5.51538C2.931 0 0.835938 2.09867 0.835938 4.6875V15.3125C0.835938 17.9013 2.931 20 5.51538 20H16.1221C18.7065 20 20.8016 17.9013 20.8016 15.3125V4.6875C20.8016 2.09867 18.7065 0 16.1221 0Z"
        fill="url(#paint1_radial_1589_549)" />
    <path
        d="M10.8193 2.1875C8.70124 2.1875 8.43537 2.1968 7.60352 2.23469C6.77323 2.27281 6.20647 2.40445 5.7106 2.59766C5.19758 2.79719 4.76247 3.06414 4.329 3.49852C3.89513 3.93281 3.62864 4.36867 3.42883 4.88234C3.23541 5.37922 3.10384 5.94719 3.06648 6.77852C3.02928 7.61188 3.01953 7.87828 3.01953 10.0001C3.01953 12.1219 3.02889 12.3873 3.06664 13.2206C3.10485 14.0523 3.23627 14.6201 3.42898 15.1168C3.62833 15.6307 3.89482 16.0666 4.32845 16.5008C4.76184 16.9354 5.19696 17.203 5.70959 17.4025C6.20584 17.5957 6.77268 17.7273 7.60281 17.7655C8.43474 17.8034 8.70038 17.8127 10.8184 17.8127C12.9367 17.8127 13.2017 17.8034 14.0335 17.7655C14.8638 17.7273 15.4312 17.5957 15.9275 17.4025C16.4403 17.203 16.8747 16.9354 17.3081 16.5008C17.7419 16.0666 18.0083 15.6307 18.2082 15.117C18.3999 14.6201 18.5316 14.0522 18.5706 13.2208C18.6079 12.3875 18.6177 12.1219 18.6177 10.0001C18.6177 7.87828 18.6079 7.61203 18.5706 6.77867C18.5316 5.94695 18.3999 5.3793 18.2082 4.88258C18.0083 4.36867 17.7419 3.93281 17.3081 3.49852C16.8743 3.06398 16.4404 2.79703 15.927 2.59773C15.4298 2.40445 14.8627 2.27273 14.0325 2.23469C13.2005 2.1968 12.9357 2.1875 10.8169 2.1875H10.8193ZM10.1197 3.59539C10.3273 3.59508 10.5591 3.59539 10.8193 3.59539C12.9017 3.59539 13.1485 3.60289 13.9708 3.64031C14.7312 3.67516 15.144 3.80242 15.4189 3.90938C15.7829 4.05094 16.0424 4.22023 16.3152 4.49375C16.5881 4.76719 16.7571 5.02758 16.8988 5.39219C17.0055 5.66719 17.1327 6.08063 17.1674 6.84234C17.2047 7.66594 17.2128 7.91328 17.2128 9.99828C17.2128 12.0833 17.2047 12.3307 17.1674 13.1542C17.1326 13.9159 17.0055 14.3294 16.8988 14.6045C16.7574 14.9691 16.5881 15.2287 16.3152 15.502C16.0422 15.7754 15.783 15.9446 15.4189 16.0863C15.1443 16.1937 14.7312 16.3206 13.9708 16.3555C13.1487 16.3929 12.9017 16.401 10.8193 16.401C8.7368 16.401 8.48996 16.3929 7.66786 16.3555C6.90745 16.3203 6.49472 16.193 6.21957 16.0861C5.85567 15.9445 5.59564 15.7752 5.32268 15.5018C5.04971 15.2284 4.88078 14.9686 4.73907 14.6038C4.6323 14.3287 4.5051 13.9153 4.47047 13.1536C4.43311 12.33 4.42563 12.0827 4.42563 9.99633C4.42563 7.91008 4.43311 7.66398 4.47047 6.84039C4.50526 6.07867 4.6323 5.66523 4.73907 5.38984C4.88047 5.02523 5.04971 4.76484 5.32275 4.49141C5.59572 4.21797 5.85567 4.04867 6.21965 3.9068C6.49457 3.79938 6.90745 3.67242 7.66786 3.63742C8.38732 3.60484 8.66614 3.59508 10.1197 3.59344V3.59539ZM14.9825 4.89258C14.4658 4.89258 14.0466 5.31211 14.0466 5.82977C14.0466 6.34734 14.4658 6.76727 14.9825 6.76727C15.4991 6.76727 15.9183 6.34734 15.9183 5.82977C15.9183 5.31219 15.4991 4.89227 14.9825 4.89227V4.89258ZM10.8193 5.98797C8.60749 5.98797 6.81417 7.78438 6.81417 10.0001C6.81417 12.2158 8.60749 14.0113 10.8193 14.0113C13.0312 14.0113 14.8239 12.2158 14.8239 10.0001C14.8239 7.78445 13.031 5.98797 10.8192 5.98797H10.8193ZM10.8193 7.39586C12.255 7.39586 13.4191 8.56172 13.4191 10.0001C13.4191 11.4383 12.255 12.6043 10.8193 12.6043C9.3835 12.6043 8.21964 11.4383 8.21964 10.0001C8.21964 8.56172 9.3835 7.39586 10.8193 7.39586Z"
        fill="white" />
    <defs>
        <radialGradient id="paint0_radial_1589_549" cx="0" cy="0" r="1"
            gradientUnits="userSpaceOnUse"
            gradientTransform="translate(6.13931 21.5404) rotate(-90) scale(19.8215 18.4039)">
            <stop stop-color="#FFDD55" />
            <stop offset="0.1" stop-color="#FFDD55" />
            <stop offset="0.5" stop-color="#FF543E" />
            <stop offset="1" stop-color="#C837AB" />
        </radialGradient>
        <radialGradient id="paint1_radial_1589_549" cx="0" cy="0" r="1"
            gradientUnits="userSpaceOnUse"
            gradientTransform="translate(-2.50838 1.4407) rotate(78.7) scale(8.85973 36.4622)">
            <stop stop-color="#3771C8" />
            <stop offset="0.128" stop-color="#3771C8" />
            <stop offset="1" stop-color="#6600FF" stop-opacity="0" />
        </radialGradient>
    </defs>
</svg>