<svg width="16" height="13" viewBox="0 0 16 13" fill="none" xmlns="http://www.w3.org/2000/svg">
    <path
        d="M10.5 10.6685C6.4813 9.3595 2.8945 7.35102 2.35807 3.83684C2.07169 1.96072 1.84552 1.14612 1.66694 1.01368C1.04259 0.550613 1 12 1 12C1 12 3.9125 12.0538 7.5 12C9.75184 11.9662 12.7696 11.6506 15 12L10.5 10.6685Z"
        fill="white" />
    <path
        d="M1 12C1 12 1.04259 0.550613 1.66694 1.01368C1.84552 1.14612 2.07169 1.96072 2.35807 3.83684C2.8945 7.35102 6.4813 9.3595 10.5 10.6685L15 12C12.7696 11.6506 9.75184 11.9662 7.5 12M1 12C1 12 3.9125 12.0538 7.5 12M1 12L7.5 12"
        stroke="white" />
</svg>
    