<svg width="20" height="20" viewBox="0 0 20 20" fill="none" xmlns="http://www.w3.org/2000/svg">
    <g clip-path="url(#clip0_1445_33089)">
        <path
            d="M10 0C7.34844 0 4.80312 1.05422 2.92969 2.92891C1.05432 4.80434 0.000519484 7.34778 0 10C0 12.6511 1.05469 15.1964 2.92969 17.0711C4.80312 18.9458 7.34844 20 10 20C12.6516 20 15.1969 18.9458 17.0703 17.0711C18.9453 15.1964 20 12.6511 20 10C20 7.34891 18.9453 4.80359 17.0703 2.92891C15.1969 1.05422 12.6516 0 10 0Z"
            fill="url(#paint0_linear_1445_33089)" />
        <path
            d="M4.52572 9.89404C7.44135 8.62404 9.3851 7.7867 10.357 7.38217C13.1351 6.22701 13.7117 6.02639 14.0882 6.01959C14.171 6.01826 14.3554 6.03873 14.4757 6.136C14.5757 6.21803 14.6038 6.32897 14.6179 6.40686C14.6304 6.48467 14.6476 6.66201 14.6335 6.80045C14.4835 8.3817 13.832 12.2189 13.5007 13.99C13.3617 14.7394 13.0851 14.9906 12.8179 15.0151C12.2367 15.0686 11.796 14.6314 11.2335 14.2628C10.3538 13.6858 9.85697 13.3267 9.00228 12.7637C8.01478 12.1131 8.65541 11.7554 9.21791 11.1711C9.36478 11.0181 11.9242 8.69076 11.9726 8.47967C11.9788 8.45326 11.9851 8.35482 11.9257 8.30295C11.8679 8.25092 11.782 8.26873 11.7195 8.28279C11.6304 8.30279 10.2257 9.23217 7.50072 11.0708C7.10228 11.3448 6.74135 11.4784 6.41635 11.4714C6.0601 11.4637 5.3726 11.2695 4.86166 11.1036C4.23666 10.9 3.73822 10.7923 3.78197 10.4465C3.80385 10.2665 4.05229 10.0823 4.52572 9.89404Z"
            fill="white" />
    </g>
    <defs>
        <linearGradient id="paint0_linear_1445_33089" x1="1000" y1="0" x2="1000" y2="2000"
            gradientUnits="userSpaceOnUse">
            <stop stop-color="#2AABEE" />
            <stop offset="1" stop-color="#229ED9" />
        </linearGradient>
        <clipPath id="clip0_1445_33089">
            <rect width="20" height="20" fill="white" />
        </clipPath>
    </defs>
</svg>
    