<svg width="20" height="20" viewBox="0 0 20 20" fill="none" xmlns="http://www.w3.org/2000/svg">
    <g clip-path="url(#clip0_1445_33074)">
        <path
            d="M14.8223 7.20228C16.2816 8.12262 18.0692 8.66414 19.9999 8.66414V5.38621C19.6345 5.38627 19.2701 5.35262 18.9126 5.28579V7.866C16.982 7.866 15.1946 7.32455 13.7351 6.40428V13.0937C13.7351 16.4401 10.6604 19.1526 6.86789 19.1526C5.45281 19.1526 4.1375 18.7752 3.04492 18.1278C4.29195 19.2528 6.03102 19.9507 7.95492 19.9507C11.7477 19.9507 14.8225 17.2381 14.8225 13.8916V7.20228H14.8223ZM16.1637 3.89524C15.418 3.17641 14.9283 2.24745 14.8223 1.22041V0.798828H13.792C14.0513 2.10414 14.9361 3.21931 16.1637 3.89524ZM5.44367 15.5599C5.02702 15.078 4.8018 14.4883 4.80281 13.882C4.80281 12.3515 6.20914 11.1106 7.94422 11.1106C8.26752 11.1104 8.58891 11.1542 8.89711 11.2404V7.88917C8.53695 7.84566 8.17351 7.8271 7.81023 7.83393V10.4423C7.50189 10.3561 7.18033 10.3123 6.85687 10.3126C5.12187 10.3126 3.71562 11.5534 3.71562 13.0841C3.71562 14.1664 4.41851 15.1034 5.44367 15.5599Z"
            fill="#FF004F" />
        <path
            d="M13.7352 6.40421C15.1948 7.32448 16.9821 7.86593 18.9127 7.86593V5.28572C17.8351 5.08317 16.8811 4.58635 16.1638 3.89524C14.9361 3.21924 14.0515 2.10407 13.7921 0.798828H11.0856V13.8914C11.0795 15.4178 9.67555 16.6537 7.94422 16.6537C6.92406 16.6537 6.01766 16.2246 5.44367 15.5599C4.41867 15.1034 3.7157 14.1663 3.7157 13.0841C3.7157 11.5536 5.12195 10.3126 6.85695 10.3126C7.18937 10.3126 7.50976 10.3583 7.81031 10.4424V7.834C4.08437 7.90193 1.08789 10.588 1.08789 13.8915C1.08789 15.5406 1.83406 17.0356 3.04516 18.1279C4.13773 18.7752 5.45297 19.1528 6.86812 19.1528C10.6607 19.1528 13.7353 16.44 13.7353 13.0937L13.7352 6.40421Z"
            fill="black" />
        <path
            d="M18.9121 5.28483V4.58731C17.9403 4.58861 16.9877 4.34849 16.1632 3.89441C16.893 4.59939 17.8541 5.08554 18.9121 5.28497M13.7914 0.797931C13.7667 0.673214 13.7477 0.547663 13.7345 0.421586V0H9.9975V13.0928C9.99156 14.619 8.58766 15.8548 6.85625 15.8548C6.36541 15.8555 5.88128 15.7542 5.44297 15.5592C6.01695 16.2238 6.92336 16.6528 7.94351 16.6528C9.67476 16.6528 11.0788 15.417 11.0849 13.8907V0.798L13.7914 0.797931ZM7.80984 7.8331V7.09041C7.49757 7.05273 7.18275 7.03389 6.86758 7.034C3.07461 7.034 0 9.74669 0 13.0928C0 15.1906 1.20836 17.0394 3.04461 18.127C1.83352 17.0347 1.08734 15.5397 1.08734 13.8906C1.08734 10.5872 4.08375 7.90103 7.80984 7.8331Z"
            fill="#00F2EA" />
    </g>
    <defs>
        <clipPath id="clip0_1445_33074">
            <rect width="20" height="20" fill="white" />
        </clipPath>
    </defs>
</svg>
    