<svg width="20" height="15" viewBox="0 0 20 15" fill="none" xmlns="http://www.w3.org/2000/svg">
    <path
        d="M10.0637 0.498047H10.175C11.2025 0.501797 16.4087 0.539297 17.8125 0.916797C18.2369 1.03201 18.6236 1.25657 18.9339 1.56806C19.2443 1.87954 19.4675 2.26703 19.5812 2.6918C19.7075 3.1668 19.7962 3.79555 19.8562 4.4443L19.8687 4.5743L19.8962 4.8993L19.9062 5.0293C19.9875 6.1718 19.9975 7.2418 19.9987 7.47555V7.5693C19.9975 7.8118 19.9862 8.9543 19.8962 10.1443L19.8862 10.2755L19.875 10.4055C19.8125 11.1205 19.72 11.8305 19.5812 12.353C19.4675 12.7778 19.2443 13.1653 18.9339 13.4768C18.6236 13.7883 18.2369 14.0128 17.8125 14.128C16.3625 14.518 10.8512 14.5455 10.0875 14.5468H9.91C9.52375 14.5468 7.92625 14.5393 6.25125 14.4818L6.03875 14.4743L5.93 14.4693L5.71625 14.4605L5.5025 14.4518C4.115 14.3905 2.79375 14.2918 2.185 14.1268C1.76078 14.0117 1.37419 13.7873 1.06381 13.4761C0.753441 13.1648 0.530154 12.7776 0.41625 12.353C0.2775 11.8318 0.185 11.1205 0.1225 10.4055L0.1125 10.2743L0.1025 10.1443C0.0404543 9.29732 0.00626915 8.44852 0 7.5993L0 7.44555C0.0025 7.1768 0.0125 6.24805 0.08 5.22305L0.08875 5.0943L0.0925 5.0293L0.1025 4.8993L0.13 4.5743L0.1425 4.4443C0.2025 3.79555 0.29125 3.16555 0.4175 2.6918C0.531213 2.26703 0.754415 1.87954 1.0648 1.56806C1.37519 1.25657 1.76188 1.03201 2.18625 0.916797C2.795 0.754297 4.11625 0.654297 5.50375 0.591797L5.71625 0.583047L5.93125 0.575547L6.03875 0.571797L6.2525 0.563047C7.44213 0.524801 8.63226 0.503549 9.8225 0.499297L10.0637 0.498047ZM8 4.51055V10.533L13.1962 7.52305L8 4.51055Z"
        fill="#F24E1E" />
</svg>
    